HIERARCHY
ROOT Pelvis
{
	OFFSET 0.000000 0.000000 0.000000
	CHANNELS 6 Xposition Yposition Zposition Xrotation Yrotation Zrotation
	JOINT LeftUpLeg_virtual
	{
		OFFSET 0.000000 0.000000 0.000000
		CHANNELS 3 Xrotation Yrotation Zrotation
		JOINT LeftUpLeg
		{
			OFFSET 18.735201 -5.666702 -4.541200
			CHANNELS 3 Xrotation Yrotation Zrotation
			JOINT LeftLeg
			{
				OFFSET -0.021200 -31.938179 0.493100
				CHANNELS 3 Xrotation Yrotation Zrotation
				JOINT LeftFoot
				{
					OFFSET 0.021200 -31.938179 -4.336299
					CHANNELS 3 Xrotation Yrotation Zrotation
					JOINT LeftToeBase
					{
						OFFSET 0.943001 -26.722000 15.023500
						CHANNELS 3 Xrotation Yrotation Zrotation
						End Site
						{
							OFFSET 0 0 0
						}
					}
				}
			}
		}
	}
	JOINT RightUpLeg_virtual
	{
		OFFSET 0.000000 0.000000 0.000000
		CHANNELS 3 Xrotation Yrotation Zrotation
		JOINT RightUpLeg
		{
			OFFSET -18.735201 -5.666702 -4.541200
			CHANNELS 3 Xrotation Yrotation Zrotation
			JOINT RightLeg
			{
				OFFSET 0.018946 -31.938133 0.493100
				CHANNELS 3 Xrotation Yrotation Zrotation
				JOINT RightFoot
				{
					OFFSET -0.018946 -31.938126 -4.336299
					CHANNELS 3 Xrotation Yrotation Zrotation
					JOINT RightToeBase
					{
						OFFSET -0.943001 -26.722004 15.023500
						CHANNELS 3 Xrotation Yrotation Zrotation
						End Site
						{
							OFFSET 0 0 0
						}
					}
				}
			}
		}
	}
	JOINT Hips_virtual
	{
		OFFSET 0.000000 0.000000 0.000000
		CHANNELS 3 Xrotation Yrotation Zrotation
		JOINT Hips
		{
			OFFSET -0.000000 -0.000000 -0.000000
			CHANNELS 3 Xrotation Yrotation Zrotation
			JOINT Spine
			{
				OFFSET 0.000000 10.199997 -0.299500
				CHANNELS 3 Xrotation Yrotation Zrotation
				JOINT Spine1
				{
					OFFSET 0.000000 11.900002 -1.516600
					CHANNELS 3 Xrotation Yrotation Zrotation
					JOINT Spine2
					{
						OFFSET 0.000000 13.600006 -2.842500
						CHANNELS 3 Xrotation Yrotation Zrotation
						JOINT Neck_virtual
						{
							OFFSET 0.000000 0.000000 0.000000
							CHANNELS 3 Xrotation Yrotation Zrotation
							JOINT Neck
							{
								OFFSET 0.000000 9.624100 -2.890100
								CHANNELS 3 Xrotation Yrotation Zrotation
								JOINT Head
								{
									OFFSET 0.000000 14.068802 -1.351900
									CHANNELS 3 Xrotation Yrotation Zrotation
									End Site
									{
										OFFSET 0 0 0
									}
								}
							}
						}
						JOINT LeftShoulder_virtual
						{
							OFFSET 0.000000 0.000000 0.000000
							CHANNELS 3 Xrotation Yrotation Zrotation
							JOINT LeftShoulder
							{
								OFFSET 15.263000 10.923401 -0.547700
								CHANNELS 3 Xrotation Yrotation Zrotation
								JOINT LeftArm
								{
									OFFSET 25.438599 -2.830597 -13.032500
									CHANNELS 3 Xrotation Yrotation Zrotation
									JOINT LeftForeArm
									{
										OFFSET 29.960503 0.000000 0.000000
										CHANNELS 3 Xrotation Yrotation Zrotation
										JOINT LeftHand
										{
											OFFSET 27.849251 0.000000 0.000000
											CHANNELS 3 Xrotation Yrotation Zrotation
											End Site
											{
												OFFSET 0 0 0
											}
										}
									}
								}
							}
						}
						JOINT RightShoulder_virtual
						{
							OFFSET 0.000000 0.000000 0.000000
							CHANNELS 3 Xrotation Yrotation Zrotation
							JOINT RightShoulder
							{
								OFFSET -15.263000 10.923401 -0.547700
								CHANNELS 3 Xrotation Yrotation Zrotation
								JOINT RightArm
								{
									OFFSET -25.438599 -2.830597 -13.032500
									CHANNELS 3 Xrotation Yrotation Zrotation
									JOINT RightForeArm
									{
										OFFSET -29.960503 0.000000 0.000000
										CHANNELS 3 Xrotation Yrotation Zrotation
										JOINT RightHand
										{
											OFFSET -27.849251 0.000000 0.000000
											CHANNELS 3 Xrotation Yrotation Zrotation
											End Site
											{
												OFFSET 0 0 0
											}
										}
									}
								}
							}
						}
					}
				}
			}
		}
	}
}
MOTION
Frames: 9
Frame Time: 0.03333333
5.891026 96.103844 7.093306 0.000000 0.000000 0.000000 9.913385 0.208856 -4.100872 -29.128776 12.885070 13.006564 32.213033 7.525177 -0.232276 -15.913280 7.803492 -1.542043 0.000000 0.000000 0.000000 4.249523 -20.454076 2.486679 -26.805217 -10.555122 -14.669477 32.667774 9.003938 -4.643611 -17.080783 7.747286 8.709375 0.000000 0.000000 0.000000 -3.717770 -13.046576 0.165273 -8.019266 1.347644 -4.514305 5.043319 -1.906127 -2.117289 1.341865 -0.749322 -0.547379 0.000000 0.000000 0.000000 3.907999 -1.145400 -0.632935 -0.065825 0.637065 0.317677 0.000000 0.000000 0.000000 2.084768 0.259032 -0.111752 -0.301702 6.083037 -4.271930 11.724733 -27.218676 -42.661020 20.017560 -61.743838 10.097385 0.000000 0.000000 0.000000 3.858130 -0.651647 -2.909826 2.038148 4.503067 -8.708745 -31.867897 1.341626 32.517089 -58.187700 82.080986 52.065364 0.000000 0.000000 0.000000 
5.809027 96.120674 7.056408 0.000000 0.000000 0.000000 9.941048 0.288926 -4.073700 -29.084523 12.898592 13.040522 32.206371 7.486170 -0.252922 -15.900385 7.778545 -1.593315 0.000000 0.000000 0.000000 4.245947 -20.230202 2.488691 -26.786875 -10.496531 -14.638634 32.624569 8.885026 -4.584284 -17.087882 7.596209 8.724556 0.000000 0.000000 0.000000 -3.695248 -12.922653 0.174876 -7.998657 1.431255 -4.462079 5.033955 -1.881098 -2.078341 1.324557 -0.736134 -0.524612 0.000000 0.000000 0.000000 3.883237 -1.121191 -0.626770 -0.080063 0.638335 0.320556 0.000000 0.000000 0.000000 2.081905 0.266642 -0.103187 -0.290859 6.071560 -4.292602 11.574555 -27.158287 -42.849001 19.917784 -61.826053 10.032589 0.000000 0.000000 0.000000 3.873171 -0.638528 -2.857302 2.043457 4.545514 -8.446284 -30.979334 1.932847 32.559433 -53.549602 81.995820 47.684266 0.000000 0.000000 0.000000 
5.709416 96.139084 6.999498 0.000000 0.000000 0.000000 9.971237 0.350959 -4.042873 -29.035168 12.907435 13.075146 32.205407 7.447271 -0.279744 -15.882560 7.756684 -1.653629 0.000000 0.000000 0.000000 4.245238 -20.003666 2.488590 -26.763717 -10.437256 -14.609857 32.577246 8.760571 -4.528839 -17.096040 7.442085 8.728966 0.000000 0.000000 0.000000 -3.669270 -12.800382 0.185858 -7.963723 1.516840 -4.407016 5.025406 -1.862827 -2.040184 1.307779 -0.726662 -0.502239 0.000000 0.000000 0.000000 3.859102 -1.098465 -0.618710 -0.094223 0.638746 0.324140 0.000000 0.000000 0.000000 2.080804 0.272854 -0.093825 -0.277284 6.059952 -4.314379 11.447289 -27.106108 -43.025366 19.837214 -61.912953 9.984560 0.000000 0.000000 0.000000 3.893469 -0.629113 -2.801732 2.053778 4.575627 -8.170368 -30.061230 2.540796 32.587960 -49.082108 81.882234 43.474369 0.000000 0.000000 0.000000 
5.594954 96.155838 6.940928 0.000000 0.000000 0.000000 10.002009 0.394070 -4.006818 -28.982637 12.910440 13.111867 32.208983 7.408521 -0.311203 -15.860978 7.737158 -1.720721 0.000000 0.000000 0.000000 4.246671 -19.774730 2.488840 -26.736243 -10.377917 -14.580031 32.527523 8.632472 -4.477466 -17.104404 7.286915 8.723813 0.000000 0.000000 0.000000 -3.641372 -12.671095 0.197698 -7.917831 1.624957 -4.349088 5.015607 -1.850087 -2.003239 1.289861 -0.720376 -0.480553 0.000000 0.000000 0.000000 3.833850 -1.077898 -0.607903 -0.109130 0.638018 0.328870 0.000000 0.000000 0.000000 2.079841 0.276917 -0.083677 -0.262394 6.045079 -4.336771 11.339159 -27.066489 -43.190851 19.776210 -62.008719 9.953925 0.000000 0.000000 0.000000 3.916132 -0.622654 -2.741978 2.066314 4.596363 -7.876509 -29.121908 3.165349 32.606749 -44.815395 81.741341 39.465523 0.000000 0.000000 0.000000 
5.468632 96.171631 6.884481 0.000000 0.000000 0.000000 10.034235 0.422141 -3.965853 -28.926480 12.908789 13.151102 32.215417 7.370694 -0.345481 -15.836808 7.719878 -1.791442 0.000000 0.000000 0.000000 4.250720 -19.545029 2.491684 -26.704633 -10.319520 -14.547205 32.475053 8.502996 -4.429844 -17.113992 7.132550 8.711198 0.000000 0.000000 0.000000 -3.613252 -12.543339 0.209850 -7.867300 1.736813 -4.287273 4.999487 -1.845217 -1.967198 1.268183 -0.718207 -0.459103 0.000000 0.000000 0.000000 3.805270 -1.059220 -0.594698 -0.125509 0.636304 0.334612 0.000000 0.000000 0.000000 2.076388 0.278502 -0.072647 -0.247910 6.025599 -4.358604 11.240892 -27.031408 -43.342769 19.724237 -62.103789 9.933619 0.000000 0.000000 0.000000 3.938805 -0.619840 -2.677540 2.079491 4.607666 -7.562927 -28.156236 3.806525 32.609239 -40.702375 81.570559 35.611046 0.000000 0.000000 0.000000 
5.332495 96.188522 6.827921 0.000000 0.000000 0.000000 10.066970 0.421580 -3.919915 -28.868457 12.899370 13.191461 32.229600 7.330720 -0.382735 -15.807348 7.701595 -1.867732 0.000000 0.000000 0.000000 4.257721 -19.320875 2.499186 -26.668955 -10.264288 -14.509815 32.416317 8.374109 -4.385095 -17.128180 6.980030 8.693583 0.000000 0.000000 0.000000 -3.582654 -12.419507 0.221954 -7.805472 1.850523 -4.230909 4.979367 -1.848124 -1.933442 1.243498 -0.720086 -0.438641 0.000000 0.000000 0.000000 3.772699 -1.042577 -0.579814 -0.143776 0.633563 0.340862 0.000000 0.000000 0.000000 2.070584 0.277672 -0.061579 -0.233576 6.001581 -4.383177 11.151918 -27.006901 -43.482753 19.680751 -62.200921 9.921995 0.000000 0.000000 0.000000 3.961132 -0.620750 -2.609731 2.093464 4.610152 -7.236783 -27.160590 4.463379 32.574576 -36.691039 81.366848 31.853974 0.000000 0.000000 0.000000 
5.189477 96.206528 6.776308 0.000000 0.000000 0.000000 10.100520 0.396164 -3.869230 -28.806347 12.882984 13.232272 32.243797 7.290354 -0.420640 -15.777235 7.683310 -1.945253 0.000000 0.000000 0.000000 4.265028 -19.117288 2.510221 -26.633296 -10.215522 -14.470200 32.351877 8.247644 -4.343026 -17.147216 6.830918 8.672699 0.000000 0.000000 0.000000 -3.551865 -12.290189 0.233860 -7.739862 1.984852 -4.176303 4.952819 -1.856843 -1.900723 1.214858 -0.725223 -0.418408 0.000000 0.000000 0.000000 3.735629 -1.027144 -0.562920 -0.163895 0.629975 0.347691 0.000000 0.000000 0.000000 2.061438 0.275096 -0.049317 -0.219792 5.973428 -4.406336 11.073679 -26.991156 -43.607585 19.650487 -62.300942 9.923695 0.000000 0.000000 0.000000 3.983659 -0.625142 -2.537637 2.109618 4.603395 -6.894320 -26.129184 5.136872 32.511345 -32.811576 81.131685 28.228118 0.000000 0.000000 0.000000 
5.040732 96.220047 6.732552 0.000000 0.000000 0.000000 10.134520 0.352765 -3.814746 -28.740999 12.861366 13.273591 32.259390 7.249938 -0.458655 -15.745000 7.665110 -2.022870 0.000000 0.000000 0.000000 4.271021 -18.939346 2.525745 -26.601246 -10.174429 -14.428186 32.284067 8.124431 -4.304812 -17.169943 6.686646 8.647487 0.000000 0.000000 0.000000 -3.519176 -12.153032 0.246016 -7.664220 2.143793 -4.120090 4.922938 -1.870567 -1.869097 1.183566 -0.733179 -0.398406 0.000000 0.000000 0.000000 3.693931 -1.012403 -0.544008 -0.186116 0.625814 0.355021 0.000000 0.000000 0.000000 2.049148 0.271174 -0.035209 -0.206557 5.942460 -4.425764 11.012550 -26.983280 -43.720294 19.631702 -62.397712 9.933510 0.000000 0.000000 0.000000 4.005178 -0.632362 -2.460469 2.126751 4.591164 -6.532056 -25.064778 5.817798 32.434031 -29.099864 80.860424 24.772184 0.000000 0.000000 0.000000 
4.887252 96.234047 6.695286 0.000000 0.000000 0.000000 10.172926 0.291129 -3.759317 -28.667984 12.836281 13.312334 32.274870 7.209382 -0.496350 -15.712029 7.646686 -2.100063 0.000000 0.000000 0.000000 4.277731 -18.792381 2.546639 -26.571488 -10.142864 -14.384131 32.211428 8.005744 -4.271245 -17.198440 6.548529 8.617456 0.000000 0.000000 0.000000 -3.484415 -12.013961 0.258793 -7.577800 2.314898 -4.061887 4.887899 -1.889787 -1.839020 1.148703 -0.744061 -0.378859 0.000000 0.000000 0.000000 3.647422 -0.999074 -0.523369 -0.210252 0.620661 0.362556 0.000000 0.000000 0.000000 2.032332 0.265847 -0.019540 -0.194386 5.907779 -4.443240 10.962732 -26.982544 -43.824567 19.619527 -62.490377 9.946633 0.000000 0.000000 0.000000 4.024699 -0.642864 -2.378319 2.144019 4.572092 -6.151265 -23.976409 6.494952 32.343179 -25.571217 80.547738 21.499489 0.000000 0.000000 0.000000 
